<?xml version="1.0" standalone="no"?>
<!DOCTYPE svg PUBLIC "-//W3C//DTD SVG 20010904//EN"
 "http://www.w3.org/TR/2001/REC-SVG-20010904/DTD/svg10.dtd">
<svg version="1.0" xmlns="http://www.w3.org/2000/svg"
 width="300.000000pt" height="300.000000pt" viewBox="0 0 300.000000 300.000000"
 preserveAspectRatio="xMidYMid meet">
<metadata>
Created by potrace 1.11, written by Peter Selinger 2001-2013
</metadata>
<g transform="translate(0.000000,300.000000) scale(0.100000,-0.100000)"
fill="#000000" stroke="none">
<path d="M270 1485 l0 -815 23 -1 c26 -1 165 -1 190 0 16 1 17 17 17 191 l0
191 82 80 c52 52 84 76 88 69 4 -7 56 -129 116 -271 l109 -259 50 -1 c157 -3
180 -1 177 12 -3 14 -278 671 -292 699 -6 11 7 32 43 71 29 31 77 84 107 117
30 34 57 59 61 54 3 -4 24 -50 47 -102 43 -102 287 -666 319 -740 11 -25 26
-60 33 -78 12 -30 16 -32 60 -32 l47 0 156 371 155 372 19 -44 c11 -24 82
-191 158 -371 136 -321 139 -326 169 -330 17 -2 38 -2 47 0 11 2 46 70 100
195 112 260 252 582 276 637 33 71 113 262 113 266 0 3 -53 3 -117 2 l-116 -3
-72 -165 c-40 -91 -98 -226 -130 -300 -32 -74 -64 -148 -72 -164 -15 -28 -16
-25 -152 300 l-136 329 -84 0 -84 0 -40 -95 c-21 -52 -46 -111 -55 -130 -58
-131 -165 -389 -169 -407 -3 -13 -8 -23 -12 -23 -3 0 -70 147 -148 328 l-141
327 -153 3 -153 3 -203 -203 -203 -203 0 468 0 467 -115 0 -115 0 0 -815z"/>
</g>
</svg>
